# xmcd
#
# Track frame offsets:
#  150
#  16340
#  31160
#  42680
#  55748
#  70911
#  88572
#  102298
#  113487
#  128639
#  141282
#
# Disc length: 2279 seconds
#
# Revision: 0
# Processed by: cddbd v1.5.1PL2 Copyright (c) Steve Scherf et al.
# Submitted via: Collectorz.com_Music_Collector 6.9
#
DISCID=8d08e50b
DTITLE=Felix Cavaliere - Felix Cavaliere
DYEAR=1974
DGENRE=Classic Rock
TTITLE0=A High Price To Pay
TTITLE1=I Am A Gambler
TTITLE2=I've Got A Solution
TTITLE3=Everlasting Love
TTITLE4=Summer In El Barrio
TTITLE5=Long Times Gone
TTITLE6=Future Train
TTITLE7=Mountain Man
TTITLE8=Funky Friday
TTITLE9=It's Been A Long Time
TTITLE10=I Am Free
EXTD=
EXTT0=
EXTT1=
EXTT2=
EXTT3=
EXTT4=
EXTT5=
EXTT6=
EXTT7=
EXTT8=
EXTT9=
EXTT10=
PLAYORDER=
